# xmcd
#
# Track frame offsets: 
#        150
#        20637
#        43472
#        64472
#        79472
#        102012
#        118662
#        133925
#        150212
#        167325
#        190737
#        206387
#
# Disc length: 3013 seconds
#
# Revision: 3
# Processed by: cddbd v1.5.2PL0 Copyright (c) Steve Scherf et al.
# Submitted via: ExactAudioCopy v1.0b4
#
DISCID=a20bc30c
DTITLE=Mick Clarke Band, The - No Compromise
DYEAR=1993
DGENRE=Blues
TTITLE0=Backseat Blues
TTITLE1=That´s All Right
TTITLE2=Talking With The Blues
TTITLE3=No Creases
TTITLE4=Cool Night Air
TTITLE5=Voodoo Hounds From Hell!
TTITLE6=Twilight Café
TTITLE7=Celebration
TTITLE8=My Own Time
TTITLE9=Pack My Bag
TTITLE10=Produce Row
TTITLE11=Cry To Me
EXTD=
EXTT0=
EXTT1=
EXTT2=
EXTT3=
EXTT4=
EXTT5=
EXTT6=
EXTT7=
EXTT8=
EXTT9=
EXTT10=
EXTT11=
PLAYORDER=
